<mxfile host="app.diagrams.net" agent="Mozilla/5.0 (Windows NT 10.0; Win64; x64) AppleWebKit/537.36 (KHTML, like Gecko) Chrome/131.0.0.0 Safari/537.36" version="24.9.0">
  <diagram name="Page-1" id="h4PJ5RSoM9yafLycdKXx">
    <mxGraphModel dx="1219" dy="606" grid="1" gridSize="10" guides="1" tooltips="1" connect="1" arrows="1" fold="1" page="1" pageScale="1" pageWidth="850" pageHeight="1100" math="0" shadow="0">
      <root>
        <mxCell id="0" />
        <mxCell id="1" parent="0" />
        <mxCell id="WkLibEbkZxQKZQzUue96-1" value="&lt;b&gt;&lt;font style=&quot;font-size: 23px;&quot;&gt;APLIKASI DETEKSI GEMPA TERAKHIR DARI BMKG.GO,ID&lt;/font&gt;&lt;/b&gt;" style="text;html=1;align=center;verticalAlign=middle;whiteSpace=wrap;rounded=0;" vertex="1" parent="1">
          <mxGeometry x="240" y="10" width="360" height="90" as="geometry" />
        </mxCell>
        <mxCell id="WkLibEbkZxQKZQzUue96-11" style="edgeStyle=orthogonalEdgeStyle;rounded=0;orthogonalLoop=1;jettySize=auto;html=1;entryX=0;entryY=0.5;entryDx=0;entryDy=0;" edge="1" parent="1" source="WkLibEbkZxQKZQzUue96-2" target="WkLibEbkZxQKZQzUue96-6">
          <mxGeometry relative="1" as="geometry" />
        </mxCell>
        <mxCell id="WkLibEbkZxQKZQzUue96-2" value="Sumber dari&amp;nbsp;&lt;div&gt;BMKG&lt;/div&gt;" style="shape=cylinder3;whiteSpace=wrap;html=1;boundedLbl=1;backgroundOutline=1;size=15;" vertex="1" parent="1">
          <mxGeometry x="50" y="215" width="110" height="120" as="geometry" />
        </mxCell>
        <mxCell id="WkLibEbkZxQKZQzUue96-4" value="Actor" style="shape=umlActor;verticalLabelPosition=bottom;verticalAlign=top;html=1;outlineConnect=0;" vertex="1" parent="1">
          <mxGeometry x="810" y="220" width="40" height="75" as="geometry" />
        </mxCell>
        <mxCell id="WkLibEbkZxQKZQzUue96-6" value="" style="whiteSpace=wrap;html=1;aspect=fixed;" vertex="1" parent="1">
          <mxGeometry x="270" y="110" width="330" height="330" as="geometry" />
        </mxCell>
        <mxCell id="WkLibEbkZxQKZQzUue96-3" value="Proses ekstrasi data" style="whiteSpace=wrap;html=1;aspect=fixed;" vertex="1" parent="1">
          <mxGeometry x="310" y="180" width="80" height="80" as="geometry" />
        </mxCell>
        <mxCell id="WkLibEbkZxQKZQzUue96-5" value="Proses Penampilan data" style="whiteSpace=wrap;html=1;aspect=fixed;" vertex="1" parent="1">
          <mxGeometry x="450" y="180" width="80" height="80" as="geometry" />
        </mxCell>
        <mxCell id="WkLibEbkZxQKZQzUue96-19" style="edgeStyle=orthogonalEdgeStyle;rounded=0;orthogonalLoop=1;jettySize=auto;html=1;" edge="1" parent="1" source="WkLibEbkZxQKZQzUue96-7" target="WkLibEbkZxQKZQzUue96-18">
          <mxGeometry relative="1" as="geometry" />
        </mxCell>
        <mxCell id="WkLibEbkZxQKZQzUue96-7" value="Reprository PYPI" style="shape=cube;whiteSpace=wrap;html=1;boundedLbl=1;backgroundOutline=1;darkOpacity=0.05;darkOpacity2=0.1;" vertex="1" parent="1">
          <mxGeometry x="340" y="500" width="160" height="100" as="geometry" />
        </mxCell>
        <mxCell id="WkLibEbkZxQKZQzUue96-9" value="Info data gempa terakhir" style="ellipse;whiteSpace=wrap;html=1;" vertex="1" parent="1">
          <mxGeometry x="630" y="215" width="120" height="80" as="geometry" />
        </mxCell>
        <mxCell id="WkLibEbkZxQKZQzUue96-12" value="" style="endArrow=classic;html=1;rounded=0;exitX=0;exitY=0.5;exitDx=0;exitDy=0;entryX=0;entryY=0.5;entryDx=0;entryDy=0;" edge="1" parent="1" source="WkLibEbkZxQKZQzUue96-6" target="WkLibEbkZxQKZQzUue96-3">
          <mxGeometry width="50" height="50" relative="1" as="geometry">
            <mxPoint x="400" y="330" as="sourcePoint" />
            <mxPoint x="450" y="280" as="targetPoint" />
          </mxGeometry>
        </mxCell>
        <mxCell id="WkLibEbkZxQKZQzUue96-13" value="" style="endArrow=classic;html=1;rounded=0;exitX=1;exitY=0.5;exitDx=0;exitDy=0;entryX=0;entryY=0.5;entryDx=0;entryDy=0;" edge="1" parent="1" source="WkLibEbkZxQKZQzUue96-3" target="WkLibEbkZxQKZQzUue96-5">
          <mxGeometry width="50" height="50" relative="1" as="geometry">
            <mxPoint x="270" y="285" as="sourcePoint" />
            <mxPoint x="320" y="230" as="targetPoint" />
          </mxGeometry>
        </mxCell>
        <mxCell id="WkLibEbkZxQKZQzUue96-14" value="" style="endArrow=classic;html=1;rounded=0;exitX=1;exitY=0.5;exitDx=0;exitDy=0;entryX=0.994;entryY=0.274;entryDx=0;entryDy=0;entryPerimeter=0;" edge="1" parent="1" source="WkLibEbkZxQKZQzUue96-5" target="WkLibEbkZxQKZQzUue96-6">
          <mxGeometry width="50" height="50" relative="1" as="geometry">
            <mxPoint x="400" y="230" as="sourcePoint" />
            <mxPoint x="460" y="230" as="targetPoint" />
          </mxGeometry>
        </mxCell>
        <mxCell id="WkLibEbkZxQKZQzUue96-15" value="" style="endArrow=classic;html=1;rounded=0;exitX=1.001;exitY=0.281;exitDx=0;exitDy=0;entryX=0;entryY=0.5;entryDx=0;entryDy=0;exitPerimeter=0;" edge="1" parent="1" source="WkLibEbkZxQKZQzUue96-6" target="WkLibEbkZxQKZQzUue96-9">
          <mxGeometry width="50" height="50" relative="1" as="geometry">
            <mxPoint x="540" y="230" as="sourcePoint" />
            <mxPoint x="598" y="210" as="targetPoint" />
          </mxGeometry>
        </mxCell>
        <mxCell id="WkLibEbkZxQKZQzUue96-16" value="" style="endArrow=classic;html=1;rounded=0;exitX=1;exitY=0.5;exitDx=0;exitDy=0;" edge="1" parent="1" source="WkLibEbkZxQKZQzUue96-9" target="WkLibEbkZxQKZQzUue96-4">
          <mxGeometry width="50" height="50" relative="1" as="geometry">
            <mxPoint x="600" y="213" as="sourcePoint" />
            <mxPoint x="660" y="185" as="targetPoint" />
          </mxGeometry>
        </mxCell>
        <mxCell id="WkLibEbkZxQKZQzUue96-17" value="" style="shape=flexArrow;endArrow=classic;html=1;rounded=0;exitX=0.476;exitY=1.008;exitDx=0;exitDy=0;exitPerimeter=0;" edge="1" parent="1" source="WkLibEbkZxQKZQzUue96-6" target="WkLibEbkZxQKZQzUue96-7">
          <mxGeometry width="50" height="50" relative="1" as="geometry">
            <mxPoint x="470" y="530" as="sourcePoint" />
            <mxPoint x="520" y="480" as="targetPoint" />
          </mxGeometry>
        </mxCell>
        <mxCell id="WkLibEbkZxQKZQzUue96-18" value="Actor" style="shape=umlActor;verticalLabelPosition=bottom;verticalAlign=top;html=1;outlineConnect=0;" vertex="1" parent="1">
          <mxGeometry x="680" y="513" width="40" height="75" as="geometry" />
        </mxCell>
      </root>
    </mxGraphModel>
  </diagram>
</mxfile>
